<mxfile host="app.diagrams.net" modified="2023-02-23T18:05:50.583Z" agent="5.0 (Macintosh; Intel Mac OS X 10_15_7) AppleWebKit/537.36 (KHTML, like Gecko) Chrome/110.0.0.0 Safari/537.36" etag="ONDlFhR1gcDK9wM_gPP0" version="20.8.23" type="github">
  <diagram name="Page-1" id="H22sgxx71vHs3Lm767lY">
    <mxGraphModel dx="1171" dy="727" grid="1" gridSize="10" guides="1" tooltips="1" connect="1" arrows="1" fold="1" page="1" pageScale="1" pageWidth="850" pageHeight="1100" math="0" shadow="0">
      <root>
        <mxCell id="0" />
        <mxCell id="1" parent="0" />
        <mxCell id="GcO0iYJHAe57eOkmnqRL-13" value="" style="rounded=1;whiteSpace=wrap;html=1;" vertex="1" parent="1">
          <mxGeometry x="170" y="960" width="430" height="440" as="geometry" />
        </mxCell>
        <mxCell id="Mge0fVj6qtOm_qzyRPfT-1" value="Apples" style="rounded=0;whiteSpace=wrap;html=1;" parent="1" vertex="1">
          <mxGeometry x="180" y="250" width="120" height="60" as="geometry" />
        </mxCell>
        <mxCell id="Mge0fVj6qtOm_qzyRPfT-2" value="Oranges" style="rounded=0;whiteSpace=wrap;html=1;" parent="1" vertex="1">
          <mxGeometry x="300" y="250" width="120" height="60" as="geometry" />
        </mxCell>
        <mxCell id="Mge0fVj6qtOm_qzyRPfT-3" value="Pears" style="rounded=0;whiteSpace=wrap;html=1;" parent="1" vertex="1">
          <mxGeometry x="420" y="250" width="120" height="60" as="geometry" />
        </mxCell>
        <mxCell id="Mge0fVj6qtOm_qzyRPfT-4" value="Grapes" style="rounded=0;whiteSpace=wrap;html=1;" parent="1" vertex="1">
          <mxGeometry x="540" y="250" width="120" height="60" as="geometry" />
        </mxCell>
        <mxCell id="Mge0fVj6qtOm_qzyRPfT-5" value="" style="endArrow=classic;html=1;rounded=0;" parent="1" edge="1">
          <mxGeometry width="50" height="50" relative="1" as="geometry">
            <mxPoint x="180" y="360" as="sourcePoint" />
            <mxPoint x="670" y="360" as="targetPoint" />
          </mxGeometry>
        </mxCell>
        <mxCell id="Mge0fVj6qtOm_qzyRPfT-6" value="1" style="text;html=1;align=center;verticalAlign=middle;resizable=0;points=[];autosize=1;strokeColor=none;fillColor=none;" parent="1" vertex="1">
          <mxGeometry x="350" y="320" width="30" height="30" as="geometry" />
        </mxCell>
        <mxCell id="Mge0fVj6qtOm_qzyRPfT-7" value="2" style="text;html=1;align=center;verticalAlign=middle;resizable=0;points=[];autosize=1;strokeColor=none;fillColor=none;" parent="1" vertex="1">
          <mxGeometry x="465" y="320" width="30" height="30" as="geometry" />
        </mxCell>
        <mxCell id="Mge0fVj6qtOm_qzyRPfT-8" value="3" style="text;html=1;align=center;verticalAlign=middle;resizable=0;points=[];autosize=1;strokeColor=none;fillColor=none;" parent="1" vertex="1">
          <mxGeometry x="590" y="320" width="30" height="30" as="geometry" />
        </mxCell>
        <mxCell id="Mge0fVj6qtOm_qzyRPfT-9" value="0" style="text;html=1;align=center;verticalAlign=middle;resizable=0;points=[];autosize=1;strokeColor=none;fillColor=none;" parent="1" vertex="1">
          <mxGeometry x="225" y="320" width="30" height="30" as="geometry" />
        </mxCell>
        <mxCell id="Mge0fVj6qtOm_qzyRPfT-10" value="indexes" style="text;html=1;align=center;verticalAlign=middle;resizable=0;points=[];autosize=1;strokeColor=none;fillColor=none;" parent="1" vertex="1">
          <mxGeometry x="110" y="320" width="60" height="30" as="geometry" />
        </mxCell>
        <mxCell id="Mge0fVj6qtOm_qzyRPfT-11" value="elements" style="text;html=1;align=center;verticalAlign=middle;resizable=0;points=[];autosize=1;strokeColor=none;fillColor=none;" parent="1" vertex="1">
          <mxGeometry x="105" y="265" width="70" height="30" as="geometry" />
        </mxCell>
        <mxCell id="Mge0fVj6qtOm_qzyRPfT-12" value="Memory Locations" style="text;html=1;align=center;verticalAlign=middle;resizable=0;points=[];autosize=1;strokeColor=none;fillColor=none;" parent="1" vertex="1">
          <mxGeometry x="80" y="190" width="120" height="30" as="geometry" />
        </mxCell>
        <mxCell id="Mge0fVj6qtOm_qzyRPfT-13" value="300" style="text;html=1;align=center;verticalAlign=middle;resizable=0;points=[];autosize=1;strokeColor=none;fillColor=none;" parent="1" vertex="1">
          <mxGeometry x="215" y="190" width="40" height="30" as="geometry" />
        </mxCell>
        <mxCell id="Mge0fVj6qtOm_qzyRPfT-14" value="301" style="text;html=1;align=center;verticalAlign=middle;resizable=0;points=[];autosize=1;strokeColor=none;fillColor=none;" parent="1" vertex="1">
          <mxGeometry x="340" y="190" width="40" height="30" as="geometry" />
        </mxCell>
        <mxCell id="Mge0fVj6qtOm_qzyRPfT-15" value="302" style="text;html=1;align=center;verticalAlign=middle;resizable=0;points=[];autosize=1;strokeColor=none;fillColor=none;" parent="1" vertex="1">
          <mxGeometry x="455" y="190" width="40" height="30" as="geometry" />
        </mxCell>
        <mxCell id="Mge0fVj6qtOm_qzyRPfT-16" value="304" style="text;html=1;align=center;verticalAlign=middle;resizable=0;points=[];autosize=1;strokeColor=none;fillColor=none;" parent="1" vertex="1">
          <mxGeometry x="575" y="190" width="40" height="30" as="geometry" />
        </mxCell>
        <mxCell id="GcO0iYJHAe57eOkmnqRL-1" value="" style="ellipse;whiteSpace=wrap;html=1;aspect=fixed;" vertex="1" parent="1">
          <mxGeometry x="250" y="550" width="270" height="270" as="geometry" />
        </mxCell>
        <mxCell id="GcO0iYJHAe57eOkmnqRL-2" value="Apples" style="rounded=0;whiteSpace=wrap;html=1;" vertex="1" parent="1">
          <mxGeometry x="310" y="610" width="90" height="40" as="geometry" />
        </mxCell>
        <mxCell id="GcO0iYJHAe57eOkmnqRL-3" value="Pears" style="rounded=0;whiteSpace=wrap;html=1;" vertex="1" parent="1">
          <mxGeometry x="310" y="690" width="90" height="40" as="geometry" />
        </mxCell>
        <mxCell id="GcO0iYJHAe57eOkmnqRL-4" value="Oranges" style="rounded=0;whiteSpace=wrap;html=1;" vertex="1" parent="1">
          <mxGeometry x="410" y="640" width="90" height="40" as="geometry" />
        </mxCell>
        <mxCell id="GcO0iYJHAe57eOkmnqRL-5" value="Grapes" style="rounded=0;whiteSpace=wrap;html=1;" vertex="1" parent="1">
          <mxGeometry x="350" y="760" width="90" height="40" as="geometry" />
        </mxCell>
        <mxCell id="GcO0iYJHAe57eOkmnqRL-6" value="Set" style="text;html=1;align=center;verticalAlign=middle;resizable=0;points=[];autosize=1;strokeColor=none;fillColor=none;" vertex="1" parent="1">
          <mxGeometry x="365" y="850" width="40" height="30" as="geometry" />
        </mxCell>
        <mxCell id="GcO0iYJHAe57eOkmnqRL-9" value="List" style="text;html=1;align=center;verticalAlign=middle;resizable=0;points=[];autosize=1;strokeColor=none;fillColor=none;" vertex="1" parent="1">
          <mxGeometry x="375" y="390" width="40" height="30" as="geometry" />
        </mxCell>
        <mxCell id="GcO0iYJHAe57eOkmnqRL-11" value="21" style="rounded=0;whiteSpace=wrap;html=1;" vertex="1" parent="1">
          <mxGeometry x="440" y="1030" width="120" height="60" as="geometry" />
        </mxCell>
        <mxCell id="GcO0iYJHAe57eOkmnqRL-12" value="Jack" style="shape=process;whiteSpace=wrap;html=1;backgroundOutline=1;" vertex="1" parent="1">
          <mxGeometry x="230" y="1030" width="120" height="60" as="geometry" />
        </mxCell>
        <mxCell id="GcO0iYJHAe57eOkmnqRL-14" value="" style="endArrow=classic;html=1;rounded=0;exitX=1;exitY=0.5;exitDx=0;exitDy=0;entryX=0;entryY=0.5;entryDx=0;entryDy=0;" edge="1" parent="1" source="GcO0iYJHAe57eOkmnqRL-12" target="GcO0iYJHAe57eOkmnqRL-11">
          <mxGeometry width="50" height="50" relative="1" as="geometry">
            <mxPoint x="420" y="1000" as="sourcePoint" />
            <mxPoint x="470" y="950" as="targetPoint" />
          </mxGeometry>
        </mxCell>
        <mxCell id="GcO0iYJHAe57eOkmnqRL-15" value="Keys" style="text;html=1;align=center;verticalAlign=middle;resizable=0;points=[];autosize=1;strokeColor=none;fillColor=none;" vertex="1" parent="1">
          <mxGeometry x="255" y="1000" width="50" height="30" as="geometry" />
        </mxCell>
        <mxCell id="GcO0iYJHAe57eOkmnqRL-16" value="Values" style="text;html=1;align=center;verticalAlign=middle;resizable=0;points=[];autosize=1;strokeColor=none;fillColor=none;" vertex="1" parent="1">
          <mxGeometry x="465" y="1000" width="60" height="30" as="geometry" />
        </mxCell>
        <mxCell id="GcO0iYJHAe57eOkmnqRL-17" value="Map" style="text;html=1;align=center;verticalAlign=middle;resizable=0;points=[];autosize=1;strokeColor=none;fillColor=none;" vertex="1" parent="1">
          <mxGeometry x="355" y="1410" width="50" height="30" as="geometry" />
        </mxCell>
        <mxCell id="GcO0iYJHAe57eOkmnqRL-18" value="25" style="rounded=0;whiteSpace=wrap;html=1;" vertex="1" parent="1">
          <mxGeometry x="440" y="1110" width="120" height="60" as="geometry" />
        </mxCell>
        <mxCell id="GcO0iYJHAe57eOkmnqRL-19" value="Kate" style="shape=process;whiteSpace=wrap;html=1;backgroundOutline=1;" vertex="1" parent="1">
          <mxGeometry x="230" y="1110" width="120" height="60" as="geometry" />
        </mxCell>
        <mxCell id="GcO0iYJHAe57eOkmnqRL-20" value="" style="endArrow=classic;html=1;rounded=0;exitX=1;exitY=0.5;exitDx=0;exitDy=0;entryX=0;entryY=0.5;entryDx=0;entryDy=0;" edge="1" parent="1" source="GcO0iYJHAe57eOkmnqRL-19" target="GcO0iYJHAe57eOkmnqRL-18">
          <mxGeometry width="50" height="50" relative="1" as="geometry">
            <mxPoint x="420" y="1080" as="sourcePoint" />
            <mxPoint x="470" y="1030" as="targetPoint" />
          </mxGeometry>
        </mxCell>
        <mxCell id="GcO0iYJHAe57eOkmnqRL-21" value="23" style="rounded=0;whiteSpace=wrap;html=1;" vertex="1" parent="1">
          <mxGeometry x="440" y="1200" width="120" height="60" as="geometry" />
        </mxCell>
        <mxCell id="GcO0iYJHAe57eOkmnqRL-22" value="David" style="shape=process;whiteSpace=wrap;html=1;backgroundOutline=1;" vertex="1" parent="1">
          <mxGeometry x="230" y="1200" width="120" height="60" as="geometry" />
        </mxCell>
        <mxCell id="GcO0iYJHAe57eOkmnqRL-23" value="" style="endArrow=classic;html=1;rounded=0;exitX=1;exitY=0.5;exitDx=0;exitDy=0;entryX=0;entryY=0.5;entryDx=0;entryDy=0;" edge="1" parent="1" source="GcO0iYJHAe57eOkmnqRL-22" target="GcO0iYJHAe57eOkmnqRL-21">
          <mxGeometry width="50" height="50" relative="1" as="geometry">
            <mxPoint x="420" y="1170" as="sourcePoint" />
            <mxPoint x="470" y="1120" as="targetPoint" />
          </mxGeometry>
        </mxCell>
        <mxCell id="GcO0iYJHAe57eOkmnqRL-24" value="34" style="rounded=0;whiteSpace=wrap;html=1;" vertex="1" parent="1">
          <mxGeometry x="440" y="1290" width="120" height="60" as="geometry" />
        </mxCell>
        <mxCell id="GcO0iYJHAe57eOkmnqRL-25" value="Mark" style="shape=process;whiteSpace=wrap;html=1;backgroundOutline=1;" vertex="1" parent="1">
          <mxGeometry x="230" y="1290" width="120" height="60" as="geometry" />
        </mxCell>
        <mxCell id="GcO0iYJHAe57eOkmnqRL-26" value="" style="endArrow=classic;html=1;rounded=0;exitX=1;exitY=0.5;exitDx=0;exitDy=0;entryX=0;entryY=0.5;entryDx=0;entryDy=0;" edge="1" parent="1" source="GcO0iYJHAe57eOkmnqRL-25" target="GcO0iYJHAe57eOkmnqRL-24">
          <mxGeometry width="50" height="50" relative="1" as="geometry">
            <mxPoint x="420" y="1260" as="sourcePoint" />
            <mxPoint x="470" y="1210" as="targetPoint" />
          </mxGeometry>
        </mxCell>
      </root>
    </mxGraphModel>
  </diagram>
</mxfile>
